# xmcd
#
# Track frame offsets: 
#        150
#        25579
#        40376
#        59980
#        89049
#        109217
#        130226
#        144008
#        187375
#        200283
#        210668
#        220753
#        255457
#        267002
#        282369
#
# Disc length: 3949 seconds
#
# Revision: 3
# Processed by: cddbd v1.5.2PL0 Copyright (c) Steve Scherf et al.
# Submitted via: ExactAudioCopy v0.95b4
#
DISCID=ea0f6b0f
DTITLE=Various Artist - pieprz i wanilia 4 CD2
DYEAR=2007
DGENRE=New Age
TTITLE0=Donald Byrd - Cristo Redentor
TTITLE1=Jose Feliciano - I Can't Get No Satisfaction
TTITLE2=Tom Scott - Sneakin' In The Back
TTITLE3=Patricia Barber - Witchcraft (Live)
TTITLE4=Tony Bennett and Billy Joel - New York Sate Of Mind
TTITLE5=David Axelrod - The Human Abstract
TTITLE6=Novalima feat. Andres Dulude y Anna Marie Detert - Goza
TTITLE7=Toots Thielemans - Bluesette
TTITLE8=Tom Jobim - Insensatez
TTITLE9=Astrud Gilberto and Tom Jobim - So Tinha De Ser Com Voce
TTITLE10=Claudette Soares - Ao Amigo Tom
TTITLE11=Baden Powell and Mauricio Einhorn - Consolacao
TTITLE12=Os Cariocas - Ela E'Carioca
TTITLE13=Brenda Fassie - Vul'indlela
TTITLE14=Motema Africa - Pesa Pesa
EXTD=YEAR: 2007
EXTT0=
EXTT1=
EXTT2=
EXTT3=
EXTT4=
EXTT5=
EXTT6=
EXTT7=
EXTT8=
EXTT9=
EXTT10=
EXTT11=
EXTT12=
EXTT13=
EXTT14=
PLAYORDER=
